# xmcd
#
# Track frame offsets:
#	150
#	16868
#	31896
#	48174
#	63499
#	80878
#	100594
#	122487
#	134013
#	148948
#	167038
#	184352
#	203464
#	217060
#	232924
#	250100
#	262496
#	278029
#	293045
#	304485
#
# Disc length: 4321 seconds
#
# Revision: 1
# Processed by: cddbd v1.5.2PL0 Copyright (c) Steve Scherf et al.
# Submitted via: audiograbber 1.83.01
#
DISCID=2f10df14
DTITLE=Milionario e Jose Rico - Sucessos
DYEAR=1900
DGENRE=Sertaneja
TTITLE0=Dia de Vitória
TTITLE1=Majestade a Mulher
TTITLE2=Viva a Vida
TTITLE3=Duas Camisas
TTITLE4=Praia deserta
TTITLE5=Sonhei com você
TTITLE6=Lembrança
TTITLE7=O Tropeiro
TTITLE8=Gangorra
TTITLE9=Amada amante
TTITLE10=Meu mundo vazio
TTITLE11=Decida
TTITLE12=Canarinho do peito amarelo
TTITLE13=Berço de Deus
TTITLE14=Milagre da flecha
TTITLE15=Águas de saudade
TTITLE16=Jogo do Amor
TTITLE17=Livro da vida
TTITLE18=Carro velho
TTITLE19=Velho candieiro
EXTD=
EXTT0=
EXTT1=
EXTT2=
EXTT3=
EXTT4=
EXTT5=
EXTT6=
EXTT7=
EXTT8=
EXTT9=
EXTT10=
EXTT11=
EXTT12=
EXTT13=
EXTT14=
EXTT15=
EXTT16=
EXTT17=
EXTT18=
EXTT19=
PLAYORDER=
